<svg xmlns="http://www.w3.org/2000/svg"><style>:root svg:not(:target){display:none}</style><svg viewBox="0 0 16 12" fill="none" id="hybrid-advantages-check-mark"><path d="M6.36 11.3a.75.75 0 0 1-1.06 0l-4.24-4.22a1.12 1.12 0 0 1 0-1.58l.54-.53a1.13 1.13 0 0 1 1.59 0l2.64 2.63 7.14-7.11a1.13 1.13 0 0 1 1.6 0l.52.53c.44.43.44 1.14 0 1.58l-8.73 8.7Z" fill="#B2B5BB"></path></svg><svg viewBox="0 0 16 15" fill="none" id="hybrid-info-star"><path d="M7.05.93a1 1 0 0 1 1.9 0l1.07 3.29a1 1 0 0 0 .95.69h3.46a1 1 0 0 1 .6 1.8l-2.81 2.04a1 1 0 0 0-.36 1.12l1.07 3.3a1 1 0 0 1-1.54 1.11l-2.8-2.03a1 1 0 0 0-1.18 0l-2.8 2.03a1 1 0 0 1-1.54-1.12l1.07-3.29a1 1 0 0 0-.36-1.12l-2.8-2.03a1 1 0 0 1 .59-1.81h3.46a1 1 0 0 0 .95-.7l1.07-3.28Z" fill="#F14F4F"></path></svg></svg>